<?xml version="1.0" encoding="UTF-8"?><svg id="Layer_2" xmlns="http://www.w3.org/2000/svg" viewBox="0 0 698.94 652.62"><defs><style>.cls-1,.cls-2{fill:#f2791c;}.cls-1,.cls-3{font-family:Inter-Black, Inter;font-size:107.65px;font-variation-settings:'opsz' 14, 'wght' 900;font-weight:800;}.cls-4{fill:#62241c;}.cls-3{fill:#eabc74;}.cls-5{letter-spacing:-.03em;}.cls-6{fill:#f1791c;}</style></defs><g id="Layer_1-2"><path class="cls-4" d="M347.48,30.2c3.81.37,6.33,1.99,8.92,4.05-2.79-2.3-4.47-3.62-8.92-4.05Z"/><path class="cls-4" d="M560.61,386.8c-.39.74-.77,1.47-1.16,2.2-.47.87-.94,1.74-1.41,2.59-.29.52-.58,1.04-.88,1.56-.32.58-.65,1.15-.98,1.71-1.5,2.58-3.02,5.02-4.53,7.23-2.2,3.22-3.64,7.13-7.52,8.64.08-.75.15-1.51.22-2.27.09-1.03.17-2.07.23-3.11.06-.9.11-1.79.15-2.69v-.04c.04-.9.07-1.8.09-2.71.04-1.2.05-2.42.05-3.64,0-.92-.01-1.84-.03-2.77,0-.65-.02-1.3-.05-1.96-.02-.74-.05-1.47-.08-2.21,0-.05-.01-.11-.01-.16-.04-.79-.08-1.58-.13-2.37h-19.05c.03.45.07.91.1,1.36.07.98.13,1.95.18,2.93.03.52.05,1.04.07,1.56,0,.27.02.53.03.8.03.77.05,1.54.07,2.31.08,4.02,0,7.97-.23,11.79-.01.18-.02.38-.04.59,0,.04-.01.09-.01.13-.04.52-.09,1.11-.16,1.76-.02.2-.04.4-.06.61-.07.67-.14,1.39-.23,2.15-.03.23-.06.47-.09.71-.07.61-.15,1.23-.23,1.88-.04.33-.09.67-.13,1.02-.03.24-.07.49-.1.73-.03.19-.05.39-.08.58-.09.64-.18,1.29-.27,1.94-.06.43-.13.85-.19,1.28-.13.86-.26,1.73-.4,2.59-.05.33-.1.65-.16.98-.26,1.64-.55,3.27-.85,4.83-.07.41-.14.81-.22,1.21-.12.61-.24,1.21-.36,1.79-.09.39-.17.77-.25,1.15-.07.33-.15.65-.22.97-.21.96-.44,1.84-.66,2.65-.08.31-.16.6-.24.88-.18.59-.35,1.12-.52,1.6-.04.12-.09.23-.13.34-.03.08-.06.17-.09.24-.14.35-.27.65-.41.91-2.11,4.03-15.58,15.2-19.74,18.95-29.46,26.63-61.82,42.95-101.17,50.84-6.64,1.33-15.59,1.68-20.67,3.64-8.26,3.19,2.18-6.57,3-9.34,1.18-1.34,2.34-2.69,3.5-4.04.46-.53.92-1.07,1.37-1.61.99-1.17,1.98-2.35,2.96-3.53.63-.75,1.25-1.5,1.87-2.26,1.51-1.84,3-3.69,4.48-5.56.76-.95,1.51-1.9,2.25-2.87.8-1.02,1.59-2.04,2.37-3.07.48-.62.95-1.24,1.42-1.86,1-1.32,1.98-2.64,2.96-3.97.62-.84,1.24-1.68,1.85-2.53.98-1.36,1.96-2.72,2.93-4.09.97-1.37,1.93-2.74,2.88-4.12.49-.69.96-1.39,1.43-2.08.48-.69.95-1.38,1.41-2.08.46-.67.91-1.35,1.35-2.03.4-.59.8-1.18,1.18-1.78.32-.48.63-.96.94-1.44,1.15-1.76,2.28-3.53,3.39-5.31.57-.88,1.12-1.78,1.67-2.67.07-.11.14-.21.2-.32.37-.6.74-1.2,1.1-1.8.12-.19.23-.38.34-.57.54-.9,1.08-1.8,1.62-2.7.54-.9,1.07-1.8,1.6-2.71,1.25-2.13,2.48-4.28,3.69-6.44.61-1.08,1.21-2.16,1.8-3.25.83-1.5,1.64-3.01,2.43-4.52.37-.67.72-1.34,1.07-2.02,1.15-2.19,2.28-4.4,3.37-6.61.37-.73.73-1.45,1.08-2.18.22-.45.44-.89.65-1.34.51-1.05,1.02-2.1,1.51-3.16.55-1.14,1.08-2.28,1.61-3.43.33-.73.66-1.46.99-2.2.37-.8.73-1.61,1.09-2.43.04-.07.07-.15.1-.23.5-1.12,1-2.25,1.48-3.38.55-1.27,1.09-2.56,1.63-3.84.18-.44.36-.87.54-1.31.96-2.33,1.89-4.67,2.79-7.02h-20.16c-.24.6-.48,1.19-.72,1.79-.49,1.21-.99,2.42-1.49,3.62-.2.47-.4.94-.6,1.41-.59,1.4-1.19,2.8-1.8,4.19-.55,1.27-1.12,2.54-1.69,3.81-.64,1.44-1.3,2.88-1.97,4.31-.66,1.43-1.34,2.86-2.02,4.29-.68,1.42-1.38,2.84-2.08,4.26-.6,1.22-1.21,2.43-1.83,3.64-.24.48-.49.97-.74,1.45-.53,1.03-1.06,2.06-1.61,3.09-1.21,2.32-2.45,4.62-3.73,6.91-.43.8-.87,1.58-1.32,2.37-.43.79-.88,1.58-1.34,2.36-.42.74-.85,1.48-1.28,2.22-.7,1.22-1.41,2.43-2.14,3.64-1.5,2.51-3.03,5.01-4.6,7.49-.62.98-1.24,1.96-1.88,2.94-.33.53-.67,1.05-1.01,1.57-.65,1-1.31,1.99-1.96,2.97-1.87,2.8-3.78,5.58-5.73,8.32-.89,1.26-1.79,2.52-2.71,3.77-.02.03-.04.06-.07.09-.93,1.27-1.87,2.55-2.83,3.81-.95,1.27-1.91,2.52-2.88,3.77-.85,1.1-1.71,2.2-2.59,3.29-.18.24-.37.48-.57.71-.72.9-1.44,1.8-2.18,2.69-1.03,1.27-2.08,2.53-3.15,3.79-.39.46-.78.92-1.17,1.38-.39.46-.78.92-1.18,1.37-.58.68-1.17,1.35-1.76,2.02-.65.74-1.31,1.48-1.97,2.22-.45.51-.91,1.02-1.38,1.52-1.62,1.79-3.27,3.57-4.95,5.32-.4.43-.81.86-1.23,1.29-.94.98-1.88,1.94-2.84,2.9-.76.77-1.52,1.54-2.3,2.3-.12.12-.24.24-.37.36-.38.38-.77.76-1.15,1.13-.8.78-1.61,1.56-2.42,2.32-.33.32-.67.63-1,.94-.99.94-1.98,1.86-2.98,2.78-2.72,1.1-6.53.82-9.48.73-46.98-1.45-94.78-17.9-132.61-46.99-3.97-3.06-14.34-9.26-16.13-13.4-.83-1.93,1.39-1.2,2.27-1.39.93-.2,1.86-.41,2.78-.63.65-.15,1.3-.3,1.95-.46.45-.1.89-.21,1.33-.32.66-.16,1.31-.32,1.96-.49.89-.22,1.78-.44,2.66-.68.59-.15,1.18-.31,1.77-.47.59-.15,1.18-.31,1.77-.48.6-.16,1.19-.33,1.79-.5.6-.16,1.2-.33,1.8-.51.65-.18,1.29-.37,1.94-.57.83-.24,1.65-.49,2.47-.74,1.09-.33,2.18-.67,3.27-1.02.24-.07.48-.15.71-.23,1.11-.35,2.22-.72,3.32-1.09,1.22-.4,2.43-.82,3.63-1.24,2.38-.83,4.75-1.69,7.11-2.58,1.23-.47,2.46-.94,3.69-1.43,1.19-.46,2.38-.94,3.56-1.42,1.19-.49,2.37-.98,3.55-1.48,1.18-.5,2.35-1,3.52-1.52,1.06-.46,2.1-.92,3.15-1.4,1.05-.47,2.09-.95,3.13-1.44.73-.34,1.47-.69,2.2-1.04,1.51-.71,3.01-1.44,4.51-2.19.69-.33,1.37-.68,2.06-1.03.95-.48,1.89-.96,2.83-1.45,2.82-1.46,5.63-2.97,8.41-4.54.62-.34,1.24-.69,1.85-1.04,1.5-.85,2.99-1.71,4.47-2.6,1.1-.65,2.2-1.31,3.29-1.98.22-.12.44-.26.67-.41,1.16-.71,2.32-1.43,3.48-2.16.43-.27.87-.55,1.3-.83.22-.13.44-.28.66-.42.61-.38,1.21-.77,1.8-1.17,1.07-.69,2.14-1.4,3.19-2.11.72-.48,1.43-.96,2.13-1.45.25-.16.5-.33.75-.51.56-.38,1.11-.77,1.67-1.16.5-.35,1-.7,1.5-1.06,1.12-.79,2.24-1.59,3.35-2.4.65-.47,1.29-.95,1.93-1.43.65-.48,1.29-.96,1.93-1.45,1.04-.79,2.08-1.6,3.12-2.41.88-.69,1.76-1.39,2.64-2.1.13-.1.26-.2.38-.31.62-.49,1.24-1,1.86-1.51,2.36-1.92,4.71-3.9,7.06-5.91h-29.76c-.83.61-1.66,1.2-2.49,1.79-28.01,19.76-80,46.02-114.19,47.07-3.01.09-5.7.03-7.86-2.34-4.68-6.03-10.25-11.34-14.69-17.55-1.97-2.76-3.92-5.63-5.82-8.57-.38-.59-.76-1.18-1.14-1.78-.75-1.19-1.5-2.39-2.24-3.6-.54-.89-1.08-1.78-1.61-2.67-1.07-1.8-2.12-3.62-3.15-5.46-.49-.88-.98-1.76-1.46-2.65-.2-.36-.4-.72-.59-1.08-.56-1.05-1.12-2.1-1.67-3.16h-32.36c2.28,4.93,4.71,9.79,7.31,14.58,7.49,13.81,16.04,26.75,25.5,38.78,36.6,46.54,86.81,79.27,141.81,94.62,45.93,12.83,95.2,13.52,142.68,0,18.02-5.12,35.78-12.3,53-21.63,34.88-18.91,64.21-43.92,87.23-72.99,13.14-16.59,24.22-34.51,33.09-53.36h-33.51Z"/><path class="cls-4" d="M588.66,145.55C509.76-6.78,309.94-46.73,175.93,60.04c-24.99,19.91-51.12,54.77-66.2,83.51-39.05,74.45-41.43,167.1-6.23,243.25h32.36c-.4-.77-.8-1.55-1.2-2.33-.51-1.01-1.02-2.02-1.52-3.03-.53-1.07-1.04-2.15-1.55-3.24-.51-1.08-1.02-2.16-1.51-3.25-.99-2.17-1.94-4.36-2.86-6.54-.61-1.46-1.2-2.92-1.78-4.38-.76-1.91-1.48-3.83-2.17-5.74-.14-.38-.28-.76-.41-1.14-.27-.77-.54-1.53-.8-2.29-.2-.58-.4-1.16-.58-1.74-.48-1.45-.94-2.89-1.38-4.33-2.24-7.36-12.25-49.55-9.7-53.95.23-.39,6.4-4.66,7.26-5.17,76.47-45.59,200.32-54.88,287.85-52.17l56.62,3.71c.01,5.44-.95,39.25-3.63,41.06-20.96,1.82-40.79,9.16-59.05,19.26-1.31.72-2.61,1.46-3.89,2.21-1.29.75-2.56,1.51-3.82,2.29-1.21.74-2.4,1.49-3.59,2.26-.47.3-.93.6-1.4.91-.72.46-1.43.94-2.14,1.41-.98.66-1.96,1.33-2.93,2-1.39.96-2.77,1.94-4.14,2.93-.58.41-1.15.83-1.73,1.26-.58.42-1.16.85-1.73,1.28-.76.57-1.53,1.15-2.28,1.73-.59.44-1.16.89-1.74,1.33-.93.72-1.85,1.44-2.76,2.17-2.24,1.77-4.45,3.57-6.64,5.4-1.1.91-2.19,1.83-3.27,2.75-1.41,1.18-2.8,2.38-4.19,3.59-1.1.95-2.2,1.91-3.29,2.87-.14.12-.27.24-.41.36-1.77,1.56-3.54,3.13-5.3,4.71-5.93,5.3-11.8,10.67-17.71,15.97-1.43,1.28-2.86,2.56-4.3,3.83-2.06,1.83-4.12,3.64-6.21,5.44-.77.66-1.54,1.33-2.31,1.99-.07.06-.15.13-.23.2-.86.74-1.72,1.46-2.59,2.18-.8.69-1.62,1.37-2.44,2.03-.67.56-1.34,1.11-2.01,1.66-.68.56-1.37,1.11-2.05,1.66-.48.38-.95.76-1.43,1.14-1.41,1.13-2.83,2.24-4.27,3.33-.81.63-1.64,1.24-2.46,1.86-1.13.86-2.27,1.7-3.42,2.52h29.76c2.61-2.25,5.22-4.53,7.83-6.85,2.21-1.97,4.43-3.96,6.64-5.96,6.01-5.43,12.04-10.97,18.14-16.42,1.28-1.15,2.56-2.29,3.85-3.43.86-.76,1.73-1.52,2.59-2.27,1.1-.97,2.21-1.93,3.32-2.88,1.03-.89,2.07-1.78,3.11-2.66,2.86-2.43,5.74-4.8,8.65-7.12.67-.54,1.33-1.06,2-1.58.94-.74,1.89-1.47,2.84-2.2.95-.72,1.9-1.44,2.85-2.15.12-.09.24-.18.36-.27.84-.62,1.68-1.23,2.52-1.84,1.05-.76,2.1-1.51,3.16-2.24.84-.59,1.69-1.17,2.53-1.74,1.04-.7,2.08-1.39,3.13-2.07.52-.34,1.04-.68,1.57-1.01,2.27-1.44,4.56-2.83,6.88-4.14.62-.36,1.24-.71,1.86-1.05.33-.2.67-.38,1.01-.56.4-.23.81-.45,1.22-.66.64-.34,1.27-.67,1.91-1,1.11-.57,2.22-1.13,3.33-1.66.44-.21.88-.42,1.33-.63.62-.3,1.24-.58,1.87-.86.71-.32,1.42-.63,2.14-.94,1.02-.44,2.05-.87,3.09-1.27.5-.2,1-.4,1.5-.59.76-.29,1.52-.57,2.28-.84.53-.2,1.06-.38,1.59-.56.37-.13.75-.26,1.13-.38,1.22-.41,2.45-.8,3.69-1.16,7.9-2.32,16.02-3.66,24.15-4.86-.65,3.68-1.32,7.34-2.04,10.99-.35,1.82-.71,3.64-1.09,5.46-.27,1.33-.55,2.66-.83,3.99-.41,1.94-.84,3.87-1.28,5.79-.15.67-.3,1.34-.46,2.01-.7,3.1-1.45,6.18-2.23,9.26-.42,1.66-.85,3.32-1.29,4.97-.16.64-.33,1.29-.51,1.93-.3,1.13-.62,2.26-.94,3.39-.24.87-.49,1.74-.74,2.61-.67,2.35-1.37,4.7-2.09,7.04-.34,1.11-.69,2.23-1.05,3.34-.27.86-.55,1.72-.83,2.57-.32,1.01-.66,2.01-1,3.01-.24.72-.48,1.43-.73,2.15-.3.86-.59,1.72-.89,2.57-.31.86-.61,1.71-.92,2.57-.31.86-.62,1.71-.94,2.56-.31.85-.63,1.7-.96,2.55-.64,1.7-1.3,3.4-1.98,5.09h20.16c.27-.68.53-1.36.78-2.04.16-.42.33-.85.48-1.27.17-.43.33-.87.48-1.3.17-.43.32-.85.47-1.27.47-1.27.92-2.53,1.37-3.8,8.14-23.15,14.2-47.25,18.42-71.41,3.57,1.68,7.23,2.99,10.67,4.99.45.26.89.53,1.33.8s.88.54,1.31.83c.43.28.86.56,1.28.86.6.42,1.2.84,1.78,1.28.12.08.24.17.35.26.53.4,1.05.81,1.56,1.22,1.5,1.22,2.95,2.51,4.34,3.86.27.27.54.54.81.81.32.32.63.64.94.97.53.56,1.05,1.13,1.57,1.71.55.62,1.08,1.24,1.6,1.88.24.28.47.56.7.85.5.62.98,1.25,1.45,1.88.24.32.48.64.71.96.27.37.53.74.79,1.11.26.37.52.75.77,1.12.26.38.51.77.76,1.15.31.48.61.96.91,1.45.33.53.65,1.06.97,1.6.25.43.5.86.74,1.29.3.52.59,1.04.87,1.57.22.41.44.82.65,1.23.3.58.59,1.16.88,1.74.12.25.24.49.36.74.21.42.4.84.6,1.26.39.84.77,1.69,1.14,2.55.37.86.73,1.72,1.08,2.59.13.34.26.67.39,1,.21.54.42,1.09.62,1.64.29.8.58,1.59.86,2.39.7,2.03,1.34,4.09,1.93,6.16.21.75.42,1.5.62,2.25.21.81.42,1.62.62,2.44.22.9.43,1.8.63,2.7.17.76.33,1.52.49,2.29.15.76.31,1.53.45,2.29.08.46.17.93.25,1.4.14.8.28,1.6.41,2.41.17,1.07.32,2.13.47,3.19.12.93.24,1.86.35,2.79.11.94.21,1.87.3,2.8.04.47.09.93.13,1.39.05.46.09.92.12,1.39h19.05c-.06-.96-.13-1.92-.21-2.88-.04-.46-.08-.92-.12-1.38-.04-.46-.08-.92-.13-1.38-.09-.91-.19-1.82-.3-2.73-.1-.87-.21-1.74-.32-2.6-.13-.98-.27-1.95-.42-2.92-.07-.47-.14-.94-.22-1.41-.26-1.63-.55-3.26-.86-4.89-.17-.88-.35-1.77-.54-2.65-.03-.19-.07-.38-.12-.58-.17-.79-.34-1.57-.52-2.35-.29-1.29-.6-2.57-.93-3.85-.16-.66-.33-1.31-.51-1.96-.17-.65-.35-1.3-.53-1.94h0c-.27-.99-.56-1.96-.86-2.93-.53-1.78-1.09-3.54-1.69-5.29-.36-1.07-.74-2.15-1.13-3.21-5.04-13.8-14.89-29.79-26.01-39.41-7.58-6.56-15.82-9.42-24.13-14.35-2.01-1.19-4.33-2.72-6.21-4.18l2.67-39.93c37.56,4.12,75.98,14.59,106.66,37.05.18,30.53-7.69,61.93-19.91,89.79-1.65,3.78-3.56,7.89-5.61,12.02-.66,1.32-1.33,2.64-2.01,3.96h33.51c34.7-73.68,35.75-161.69-5.46-241.25ZM211.56,71.28c34.64-25.61,92.5-45.26,135.92-41.08,4.45.43,6.13,1.75,8.92,4.05l4.26,4.53.02.02.28.3.1.1c38.96,30.66,67.74,70.22,86.93,115.63,3.7,8.75-7.93,3.45-11.47,2.74-32.65-6.52-49.58-14.05-77.92-31.66-22.99-14.29-45.49-28.42-72.17-37.42-25.56-8.62-52.41-13.27-79.49-12.19,1.76-1.18,3.27-4.03,4.62-5.02ZM456.42,221.09c-1.71-.23-3.72-.43-4.92-.57-78.49-8.71-161.07-5.35-238.3,12.68-28.05,6.55-60.15,16.05-86.11,28.12-6.33,2.95-12.45,5.89-17.79,10.3-.65-24.59,2.93-49.05,9.87-72.56,11.22-37.95,31.72-73.58,61.76-99.47,43.01-6.52,83.74-.39,123.07,17.39,32.55,14.71,60.14,36.96,93.67,50.05,17.92,6.99,37.68,12.39,57,12.56.99,5.75,2.54,11.46,3.51,17.22.06.33.11.69.18,1.07.03.18.06.36.09.55,1.01,5.8,2.88,15.99,2.8,20.26.31,4-3.2,2.62-4.83,2.4ZM459.53,132.81c-14.19-32.19-41.92-69.84-68.3-92.93-2.61-2.29-6.19-4.08-9.25-7.78,35,3.68,66.73,14.82,96.36,33.54,16.35,10.33,30.02,23.79,43.44,37.6-.14,1.88-.16,3.03-.26,4.04-.04.41-.21,2.09-.38,2.86-6.45,28.73-20.31,45.74-51.06,49.01-4.13-8.23-6.75-17.71-10.55-26.34ZM480.55,223.72l-5.53-45.14c10.26-.92,20.95-5.03,29.77-10.32,16.58-9.95,28.01-26.31,32.89-44.96l11.8,15.37c23.57,34.75,37.78,75.96,38.85,118.21-32.64-19.51-70.1-29.17-107.78-33.16Z"/><path class="cls-2" d="M462.13,241.21c.01,5.44-.95,39.25-3.63,41.06-20.96,1.82-40.79,9.16-59.05,19.26-1.31.72-2.61,1.46-3.89,2.21-1.29.75-2.56,1.51-3.82,2.29-1.21.74-2.4,1.49-3.59,2.26-.47.3-.93.6-1.4.91-.72.46-1.43.94-2.14,1.41-.98.66-1.96,1.32-2.93,2-1.39.96-2.77,1.94-4.14,2.93-.58.41-1.15.83-1.73,1.26-.58.42-1.16.85-1.73,1.28-.76.57-1.53,1.15-2.28,1.73-.59.44-1.16.89-1.74,1.33-.93.72-1.85,1.44-2.76,2.17-2.24,1.77-4.45,3.57-6.64,5.4-1.1.9-2.19,1.82-3.27,2.75-1.41,1.18-2.8,2.38-4.19,3.59-1.1.95-2.2,1.91-3.29,2.87-.14.12-.27.24-.41.36-1.77,1.56-3.54,3.13-5.3,4.71-5.93,5.3-11.8,10.67-17.71,15.97-1.43,1.28-2.86,2.56-4.3,3.83-2.06,1.83-4.12,3.64-6.21,5.44-.77.66-1.54,1.33-2.31,1.99-.07.06-.15.13-.23.2-.86.73-1.72,1.46-2.59,2.18-.8.69-1.62,1.37-2.44,2.03-.67.56-1.34,1.11-2.01,1.66-.68.56-1.37,1.11-2.05,1.66-.48.38-.95.76-1.43,1.14-1.41,1.13-2.83,2.24-4.27,3.33-.81.63-1.64,1.24-2.46,1.86-1.13.86-2.27,1.7-3.42,2.52h-156.91c-.4-.77-.8-1.55-1.2-2.33-.51-1.01-1.02-2.02-1.52-3.03-.53-1.07-1.04-2.15-1.55-3.24-.51-1.08-1.02-2.16-1.51-3.25-.99-2.17-1.94-4.36-2.86-6.54-.61-1.46-1.2-2.92-1.78-4.38-.76-1.91-1.48-3.83-2.17-5.74-.14-.38-.28-.76-.41-1.14-.27-.77-.54-1.53-.8-2.29-.2-.58-.39-1.16-.58-1.74-.48-1.45-.94-2.89-1.38-4.33-2.24-7.36-12.25-49.55-9.7-53.95.23-.39,6.4-4.66,7.26-5.17,76.47-45.59,200.32-54.88,287.85-52.17l56.62,3.71Z"/><path class="cls-6" d="M135.86,386.8h156.91c-.83.61-1.66,1.2-2.49,1.79-28.01,19.76-80,46.02-114.19,47.07-3.01.09-5.7.03-7.86-2.34-4.68-6.03-10.25-11.34-14.69-17.55-1.97-2.76-3.92-5.63-5.82-8.57-.38-.59-.76-1.18-1.14-1.78-.75-1.19-1.5-2.39-2.24-3.6-.54-.89-1.08-1.78-1.61-2.67-1.07-1.8-2.12-3.62-3.15-5.46-.49-.88-.98-1.76-1.46-2.65-.2-.36-.4-.72-.59-1.08-.56-1.05-1.12-2.1-1.67-3.16Z"/><path class="cls-2" d="M456.42,221.09c-1.71-.23-3.72-.43-4.92-.57-78.49-8.71-161.07-5.35-238.3,12.68-28.05,6.55-60.15,16.05-86.11,28.12-6.33,2.95-12.45,5.89-17.79,10.3-.65-24.59,2.93-49.05,9.87-72.56,11.22-37.95,31.72-73.58,61.76-99.47,43.01-6.52,83.74-.39,123.07,17.39,32.55,14.71,60.14,36.96,93.67,50.05,17.92,6.99,37.68,12.39,57,12.56.99,5.75,2.54,11.46,3.51,17.22.06.33.11.69.18,1.07.03.18.06.36.09.55,1.01,5.8,2.88,15.99,2.8,20.26.31,4-3.2,2.62-4.83,2.4Z"/><path class="cls-2" d="M456.6,302.95c-.65,3.68-1.32,7.34-2.04,10.99-.35,1.82-.71,3.64-1.09,5.46-.27,1.33-.55,2.66-.83,3.99-.41,1.94-.84,3.87-1.28,5.79-.15.67-.3,1.34-.46,2.01-.7,3.1-1.45,6.18-2.23,9.26-.42,1.66-.85,3.32-1.29,4.97-.16.64-.33,1.29-.51,1.93-.3,1.13-.62,2.26-.94,3.39-.24.87-.49,1.74-.74,2.61-.67,2.35-1.37,4.7-2.09,7.04-.34,1.11-.69,2.23-1.05,3.34-.27.86-.55,1.72-.83,2.57-.32,1.01-.66,2.01-1,3.01-.24.72-.48,1.43-.73,2.15-.3.86-.59,1.72-.89,2.57-.31.86-.61,1.71-.92,2.57-.31.86-.62,1.71-.94,2.56-.31.85-.63,1.7-.96,2.55-.64,1.7-1.3,3.4-1.98,5.09h-111.27c2.61-2.25,5.22-4.53,7.83-6.85,2.22-1.97,4.43-3.95,6.64-5.96,6.01-5.43,12.04-10.97,18.14-16.42,1.28-1.15,2.56-2.29,3.85-3.43.86-.76,1.73-1.52,2.59-2.27,1.1-.97,2.21-1.93,3.32-2.88,1.03-.89,2.07-1.78,3.11-2.66,2.86-2.43,5.74-4.8,8.65-7.12.66-.53,1.33-1.06,2-1.58.94-.74,1.89-1.47,2.84-2.2.95-.72,1.9-1.44,2.85-2.15.12-.09.24-.18.36-.27.84-.62,1.68-1.23,2.52-1.84,1.05-.76,2.1-1.51,3.16-2.24.84-.59,1.69-1.17,2.53-1.74,1.04-.7,2.08-1.39,3.13-2.07.52-.34,1.04-.68,1.57-1.01,2.27-1.44,4.56-2.83,6.88-4.14.62-.36,1.24-.71,1.86-1.05.33-.2.67-.38,1.01-.56.4-.23.81-.45,1.22-.66.64-.34,1.27-.67,1.91-1,1.11-.57,2.22-1.13,3.33-1.66.44-.21.88-.42,1.33-.63.62-.3,1.24-.58,1.87-.86.71-.32,1.42-.63,2.14-.94,1.02-.44,2.05-.87,3.09-1.27.5-.2,1-.4,1.5-.59.76-.29,1.52-.57,2.28-.84.53-.2,1.06-.38,1.59-.56.37-.13.75-.26,1.13-.38,1.22-.41,2.45-.8,3.69-1.16,7.9-2.32,16.02-3.66,24.15-4.86Z"/><path class="cls-6" d="M322.53,386.8h111.27c-.24.6-.48,1.19-.72,1.79-.49,1.21-.99,2.42-1.49,3.62-.2.47-.4.94-.6,1.41-.59,1.4-1.19,2.8-1.8,4.19-.55,1.27-1.12,2.54-1.69,3.81-.64,1.44-1.3,2.88-1.97,4.31-.66,1.43-1.34,2.86-2.02,4.29-.68,1.42-1.38,2.84-2.08,4.26-.6,1.22-1.21,2.43-1.83,3.64-.24.48-.49.97-.74,1.45-.53,1.03-1.06,2.06-1.61,3.09-1.21,2.32-2.45,4.62-3.73,6.91-.43.8-.87,1.58-1.32,2.37-.43.79-.88,1.58-1.34,2.36-.42.74-.85,1.48-1.28,2.22-.7,1.22-1.41,2.43-2.14,3.64-1.5,2.51-3.03,5.01-4.6,7.49-.62.98-1.24,1.96-1.88,2.94-.33.53-.67,1.05-1.01,1.57-.65,1-1.31,1.99-1.96,2.97-1.87,2.8-3.78,5.58-5.73,8.32-.89,1.26-1.8,2.52-2.71,3.77-.02.03-.04.06-.07.09-.93,1.27-1.87,2.55-2.83,3.81-.95,1.27-1.91,2.52-2.88,3.77-.86,1.11-1.72,2.2-2.59,3.29-.18.24-.37.48-.57.71-.72.9-1.44,1.8-2.18,2.69-1.03,1.27-2.08,2.53-3.15,3.79-.39.46-.78.92-1.17,1.38-.39.46-.78.92-1.18,1.37-.58.68-1.17,1.35-1.76,2.02-.65.74-1.31,1.48-1.97,2.22-.45.51-.91,1.02-1.38,1.52-1.62,1.79-3.27,3.57-4.95,5.32-.4.43-.81.86-1.23,1.29-.94.98-1.88,1.94-2.84,2.9-.76.77-1.52,1.54-2.3,2.3-.12.12-.24.24-.37.36-.38.38-.77.76-1.15,1.13-.8.78-1.61,1.56-2.42,2.32-.33.32-.67.63-1,.94-.99.94-1.98,1.86-2.98,2.78-2.72,1.1-6.53.82-9.48.73-46.98-1.45-94.78-17.9-132.61-46.99-3.97-3.06-14.34-9.26-16.13-13.4-.83-1.93,1.39-1.2,2.27-1.39.93-.2,1.86-.41,2.78-.63.65-.15,1.3-.3,1.95-.46.45-.1.89-.21,1.33-.32.66-.16,1.31-.32,1.96-.49.89-.22,1.78-.44,2.66-.68.59-.15,1.18-.31,1.77-.47.59-.15,1.18-.31,1.77-.48.6-.16,1.2-.32,1.79-.5.6-.16,1.2-.33,1.8-.51.65-.18,1.29-.37,1.94-.57.83-.24,1.65-.49,2.47-.74,1.09-.33,2.18-.67,3.27-1.02.24-.07.48-.15.71-.23,1.11-.35,2.22-.72,3.32-1.09,1.22-.4,2.43-.82,3.63-1.24,2.38-.83,4.75-1.69,7.11-2.58,1.23-.47,2.46-.94,3.69-1.43,1.19-.46,2.38-.94,3.56-1.42,1.19-.49,2.37-.98,3.55-1.48,1.18-.5,2.35-1,3.52-1.52,1.06-.46,2.1-.92,3.15-1.4,1.05-.47,2.09-.95,3.13-1.44.73-.34,1.47-.68,2.2-1.04,1.51-.71,3.01-1.44,4.51-2.19.69-.33,1.37-.68,2.06-1.03.94-.47,1.89-.95,2.83-1.45,2.82-1.46,5.63-2.97,8.41-4.54.62-.34,1.24-.69,1.85-1.04,1.5-.85,2.99-1.71,4.47-2.6,1.1-.64,2.2-1.3,3.29-1.98.22-.12.44-.26.67-.41,1.17-.7,2.32-1.42,3.48-2.16.43-.27.87-.55,1.3-.83.22-.13.44-.28.66-.42.61-.38,1.21-.77,1.8-1.17,1.07-.69,2.14-1.4,3.19-2.11.72-.48,1.43-.96,2.13-1.45.25-.16.5-.33.75-.51.56-.38,1.11-.77,1.67-1.16.5-.35,1-.7,1.5-1.06,1.12-.79,2.24-1.59,3.35-2.4.65-.47,1.29-.95,1.93-1.43.65-.48,1.29-.96,1.93-1.45,1.04-.79,2.08-1.6,3.12-2.41.88-.69,1.76-1.39,2.64-2.1.13-.1.26-.2.38-.31.62-.49,1.24-1,1.86-1.51,2.36-1.92,4.71-3.9,7.06-5.91Z"/><path class="cls-2" d="M525.52,386.8h-71.56c.27-.68.53-1.36.78-2.04.16-.42.33-.85.48-1.27.17-.43.33-.87.48-1.3.17-.43.32-.85.47-1.27.47-1.27.92-2.53,1.37-3.8,8.14-23.15,14.2-47.25,18.42-71.41,3.57,1.68,7.23,2.99,10.67,4.99.45.26.89.53,1.33.8s.88.54,1.31.83c.43.28.86.56,1.28.86.6.42,1.2.84,1.78,1.28.12.08.24.17.35.26.53.4,1.05.81,1.56,1.22,1.5,1.22,2.95,2.51,4.34,3.86.27.27.54.54.81.81.32.32.63.64.94.97.53.56,1.05,1.13,1.57,1.71.55.62,1.08,1.24,1.6,1.88.24.28.47.56.7.85.5.62.98,1.25,1.45,1.88.24.32.48.64.71.96.27.37.53.74.79,1.11.26.37.52.75.77,1.12.26.38.51.77.76,1.15.31.48.61.96.91,1.45.33.53.65,1.06.97,1.6.25.43.5.86.74,1.29.3.52.59,1.04.87,1.57.22.41.44.82.65,1.23.3.58.59,1.16.88,1.74.12.25.24.49.36.74.21.42.4.84.6,1.26.39.84.77,1.69,1.14,2.55.37.86.73,1.72,1.08,2.59.13.34.26.67.39,1,.21.54.42,1.09.62,1.64.29.8.58,1.59.86,2.39.7,2.03,1.34,4.09,1.93,6.16.21.75.42,1.5.62,2.25.21.81.42,1.62.62,2.44.22.9.43,1.8.63,2.7.17.76.33,1.52.49,2.29.15.76.31,1.53.45,2.29.08.46.17.93.25,1.4.14.8.28,1.6.41,2.41.17,1.07.32,2.13.47,3.19.12.93.24,1.86.35,2.79.11.94.21,1.87.3,2.8.04.47.09.93.13,1.39.05.46.09.92.12,1.39Z"/><path class="cls-6" d="M525.74,407.55c-.01.18-.02.38-.04.59,0,.04-.01.09-.01.13-.04.52-.09,1.11-.16,1.76-.02.2-.04.4-.06.61-.07.67-.14,1.39-.23,2.15-.03.23-.06.47-.09.71-.07.61-.15,1.23-.23,1.88-.04.33-.09.67-.13,1.02-.03.24-.07.49-.1.73-.03.19-.05.39-.08.58-.09.64-.18,1.29-.27,1.94-.06.43-.13.85-.19,1.28-.13.86-.26,1.73-.4,2.59-.05.33-.1.65-.16.98-.26,1.64-.55,3.27-.85,4.83-.07.41-.14.81-.22,1.21-.12.61-.24,1.21-.36,1.79-.09.39-.17.77-.25,1.15-.07.33-.15.65-.22.97-.21.96-.44,1.84-.66,2.65-.08.31-.16.6-.24.88-.18.59-.35,1.12-.52,1.6-.04.12-.09.23-.13.34-.03.08-.06.17-.09.24-.14.35-.27.65-.41.91-2.11,4.03-15.58,15.2-19.74,18.95-29.46,26.63-61.82,42.95-101.17,50.84-6.64,1.33-15.59,1.68-20.67,3.64-8.26,3.19,2.18-6.57,3-9.34,1.18-1.34,2.34-2.69,3.5-4.04.46-.53.92-1.07,1.37-1.61,1-1.17,1.98-2.34,2.96-3.53.63-.75,1.25-1.5,1.87-2.26,1.51-1.84,3-3.69,4.48-5.56.76-.95,1.51-1.9,2.25-2.87.8-1.02,1.59-2.04,2.37-3.07.48-.62.95-1.24,1.42-1.86,1-1.32,1.98-2.64,2.96-3.97.62-.84,1.24-1.68,1.85-2.53.99-1.35,1.97-2.72,2.93-4.09.98-1.37,1.94-2.74,2.88-4.12.49-.69.96-1.39,1.43-2.08.48-.69.95-1.38,1.41-2.08.46-.67.91-1.35,1.35-2.03.4-.59.8-1.18,1.18-1.78.32-.48.63-.96.94-1.44,1.15-1.76,2.28-3.53,3.39-5.31.57-.88,1.12-1.78,1.67-2.67.07-.11.14-.21.2-.32.37-.6.74-1.2,1.1-1.8.12-.19.23-.38.34-.57.56-.9,1.1-1.8,1.62-2.7.55-.9,1.08-1.8,1.6-2.71,1.26-2.13,2.49-4.28,3.69-6.44.61-1.08,1.21-2.16,1.8-3.25.83-1.5,1.64-3.01,2.43-4.52.37-.67.72-1.34,1.07-2.02,1.15-2.19,2.28-4.4,3.37-6.61.37-.73.73-1.45,1.08-2.18.22-.45.44-.89.65-1.34.51-1.05,1.02-2.1,1.51-3.16.55-1.14,1.08-2.28,1.61-3.43.33-.73.66-1.46.99-2.2.37-.8.73-1.61,1.09-2.43.04-.07.07-.15.1-.23.5-1.12,1-2.25,1.48-3.38.55-1.27,1.09-2.56,1.63-3.84.18-.44.36-.87.54-1.31.96-2.33,1.89-4.67,2.79-7.02h71.56c.03.45.07.91.1,1.36.07.98.13,1.95.18,2.93.03.52.05,1.04.07,1.56,0,.27.02.53.03.8.03.77.05,1.54.07,2.31.08,4.02,0,7.97-.23,11.79Z"/><path class="cls-2" d="M436.52,157.57c-32.65-6.52-49.58-14.05-77.92-31.66-22.99-14.29-45.49-28.42-72.17-37.42-25.56-8.62-52.41-13.27-79.49-12.19,1.76-1.18,3.27-4.03,4.62-5.02,34.64-25.61,92.5-45.26,135.92-41.08,3.81.37,6.33,1.99,8.92,4.05l4.26,4.53.02.02.28.3.1.1c38.96,30.66,67.74,70.22,86.93,115.63,3.7,8.75-7.93,3.45-11.47,2.74Z"/><path class="cls-6" d="M356.4,34.25c-2.59-2.06-5.11-3.68-8.92-4.05,4.45.43,6.13,1.75,8.92,4.05Z"/><path class="cls-2" d="M588.14,281.03c.18,30.53-7.69,61.93-19.91,89.79-1.65,3.78-3.56,7.89-5.61,12.02-.66,1.32-1.33,2.64-2.01,3.96h-16.04c-.06-.96-.13-1.92-.21-2.88-.04-.46-.08-.92-.12-1.38-.04-.46-.08-.92-.13-1.38-.09-.91-.19-1.82-.3-2.73-.1-.87-.21-1.74-.32-2.6-.13-.98-.27-1.95-.42-2.92-.07-.47-.14-.94-.22-1.41-.26-1.63-.55-3.26-.86-4.89-.17-.88-.35-1.77-.54-2.65-.03-.19-.07-.38-.12-.58-.16-.78-.34-1.57-.52-2.35-.29-1.29-.6-2.57-.93-3.85-.16-.66-.33-1.31-.51-1.96-.17-.65-.35-1.3-.53-1.94h0c-.27-.99-.56-1.96-.86-2.93-.53-1.78-1.09-3.54-1.69-5.29-.36-1.07-.74-2.15-1.13-3.21-5.04-13.8-14.89-29.79-26.01-39.41-7.58-6.56-15.82-9.42-24.13-14.35-2.01-1.19-4.33-2.72-6.21-4.18l2.67-39.93c37.56,4.12,75.98,14.59,106.66,37.05Z"/><path class="cls-6" d="M544.57,386.8h16.04c-.39.74-.77,1.47-1.16,2.2-.47.87-.94,1.74-1.41,2.59-.29.52-.58,1.04-.88,1.56-.32.58-.65,1.15-.98,1.71-1.5,2.58-3.02,5.02-4.53,7.23-2.2,3.22-3.64,7.13-7.52,8.64.08-.75.15-1.51.22-2.27.09-1.03.17-2.07.23-3.11.06-.9.11-1.79.15-2.69v-.04c.04-.9.07-1.8.09-2.71.04-1.2.05-2.42.05-3.64,0-.92-.01-1.84-.03-2.77,0-.65-.02-1.3-.05-1.96-.02-.74-.05-1.47-.08-2.21,0-.05-.01-.11-.01-.16-.04-.79-.08-1.58-.13-2.37Z"/><path class="cls-2" d="M588.33,256.88c-32.64-19.51-70.1-29.17-107.78-33.16l-5.53-45.14c10.26-.92,20.95-5.03,29.77-10.32,16.58-9.95,28.01-26.31,32.89-44.96l11.8,15.37c23.57,34.75,37.78,75.96,38.85,118.21Z"/><path class="cls-2" d="M521.78,103.24c-.14,1.88-.16,3.03-.26,4.04-.04.41-.21,2.09-.38,2.86-6.45,28.73-20.31,45.74-51.06,49.01-4.13-8.23-6.75-17.71-10.55-26.34-14.19-32.19-41.92-69.84-68.3-92.93-2.61-2.29-6.19-4.08-9.25-7.78,35,3.68,66.73,14.82,96.36,33.54,16.35,10.33,30.02,23.79,43.44,37.6Z"/><rect class="cls-4" x="55.61" y="440.17" width="587.72" height="182.89"/><rect class="cls-4" y="386.8" width="698.94" height="147.98"/><text class="cls-3" transform="translate(26.14 502.08)"><tspan x="0" y="0">FUL</tspan><tspan class="cls-5" x="201.41" y="0">L</tspan><tspan x="259.23" y="0">COURT</tspan></text><text class="cls-1" transform="translate(79.02 600.91)"><tspan x="0" y="0">TRAINING</tspan></text><polygon class="cls-4" points="0 534.78 55.61 534.78 55.61 564.34 0 534.78"/><polygon class="cls-4" points="643.33 564.34 698.94 534.78 643.33 534.78 643.33 564.34"/><polygon class="cls-4" points="55.61 623.06 349.47 623.06 349.47 652.62 55.61 623.06"/><polygon class="cls-4" points="643.33 623.06 349.47 623.06 349.47 652.62 643.33 623.06"/></g></svg>